# xmcd
#
# Track frame offsets:
#	150
#	14005
#	35587
#	52025
#	65870
#	80852
#	103285
#	121607
#	134467
#	157525
#	173772
#	187195
#	208197
#	223777
#	236905
#	251455
#	273415
#	291220
#	303737
#	325200
#
# Disc length: 4545 seconds
#
# Revision: 1
# Processed by: cddbd v1.5.2PL0 Copyright (c) Steve Scherf et al.
# Submitted via: audiograbber 1.82.01
#
DISCID=3d11bf14
DTITLE=Edynaldo do Rio - Ta Derrotado
DYEAR=1999
DGENRE=Gospel
TTITLE0=Jaco segurou o anjo
TTITLE1=Agua pra beber
TTITLE2=Ta derrotado
TTITLE3=Vaso Rachado
TTITLE4=Caminho apertado
TTITLE5=Outra Vez
TTITLE6=Diga ao povo que marche
TTITLE7=Receba ai
TTITLE8=Barreira
TTITLE9=O anjo do movimento
TTITLE10=PB
TTITLE11=PB
TTITLE12=PB
TTITLE13=PB
TTITLE14=PB
TTITLE15=PB
TTITLE16=PB
TTITLE17=PB
TTITLE18=PB
TTITLE19=PB
EXTD=
EXTT0=
EXTT1=
EXTT2=
EXTT3=
EXTT4=
EXTT5=
EXTT6=
EXTT7=
EXTT8=
EXTT9=
EXTT10=
EXTT11=
EXTT12=
EXTT13=
EXTT14=
EXTT15=
EXTT16=
EXTT17=
EXTT18=
EXTT19=
PLAYORDER=
